<svg width="21" height="23" viewBox="0 0 21 23" fill="none" xmlns="http://www.w3.org/2000/svg">
<path d="M10.6602 13.0454C13.4447 13.0454 15.9715 13.7695 17.7979 14.8491C19.6323 15.9335 20.7246 17.3532 20.7246 18.7329C20.7246 19.6607 20.3562 20.5505 19.7002 21.2065C19.0442 21.8625 18.1543 22.231 17.2266 22.231H4.09375C3.22375 22.231 2.38688 21.907 1.74512 21.3257L1.62012 21.2065C0.964085 20.5505 0.595703 19.6607 0.595703 18.7329C0.595715 17.3532 1.68798 15.9335 3.52246 14.8491C5.34881 13.7695 7.87563 13.0454 10.6602 13.0454ZM4.81543 16.2896L4.48438 16.4751C3.6683 16.9573 3.17007 17.4273 2.875 17.8228C2.5825 18.2148 2.48438 18.5409 2.48438 18.7329C2.48438 19.1063 2.61412 19.4661 2.84863 19.7524L2.95508 19.8706C3.25687 20.1724 3.66695 20.3423 4.09375 20.3423H6.51367L6.4375 20.1392L5.02637 16.3687L4.9668 16.2085L4.81543 16.2896ZM10.6602 14.9351C9.38013 14.9318 8.1062 15.1098 6.87598 15.4634L6.71973 15.5083L6.77637 15.6597L8.49707 20.2446L8.5332 20.3423H12.7881L12.8242 20.2446L14.5439 15.6587L14.6006 15.5063L14.4453 15.4614C13.4567 15.1745 12.3499 14.9864 11.1699 14.9438L10.6602 14.9351ZM16.2939 16.3687L14.8818 20.1392L14.8057 20.3423H17.2266C17.6534 20.3423 18.0634 20.1724 18.3652 19.8706C18.6668 19.5688 18.8359 19.1595 18.8359 18.7329C18.8359 18.5409 18.7378 18.2148 18.4453 17.8228C18.1872 17.4768 17.7738 17.0732 17.1279 16.6548L16.8359 16.4751C16.727 16.4109 16.6165 16.349 16.5049 16.2896L16.3545 16.2085L16.2939 16.3687ZM11.9043 0.802246C12.696 1.00771 13.4241 1.40285 14.0234 1.95654L14.291 2.22217C14.9779 2.96115 15.4226 3.89253 15.5664 4.89111L15.585 5.02002H16.1328C16.3517 5.02012 16.5626 5.0964 16.7305 5.23389L16.7998 5.29639C16.9769 5.4735 17.0771 5.71388 17.0771 5.96436C17.0771 6.18347 17.0009 6.39495 16.8633 6.56299L16.7998 6.63232C16.6228 6.80918 16.383 6.90858 16.1328 6.90869H15.6172V7.05908C15.6171 8.29166 15.1584 9.47688 14.335 10.3862L14.166 10.564C13.2363 11.4937 11.9749 12.0161 10.6602 12.0161C9.4276 12.0161 8.24238 11.5572 7.33301 10.7339L7.1543 10.564C6.22489 9.63436 5.70319 8.37361 5.70312 7.05908V6.90869H5.1875C4.96857 6.9086 4.75776 6.83232 4.58984 6.69482L4.52051 6.63232C4.34339 6.45521 4.24316 6.21484 4.24316 5.96436C4.24317 5.74523 4.31938 5.53376 4.45703 5.36572L4.52051 5.29639C4.6975 5.11955 4.93731 5.02013 5.1875 5.02002H5.7334L5.75195 4.89111C5.87782 4.01723 6.23478 3.19523 6.78223 2.5083L7.02832 2.22217C7.67281 1.52902 8.50233 1.03907 9.41602 0.802246V3.04541C9.41602 3.33413 9.51591 3.61306 9.69727 3.83447L9.78027 3.92627C10.0136 4.15948 10.3302 4.29053 10.6602 4.29053C10.9901 4.29053 11.3067 4.15948 11.54 3.92627C11.7734 3.69289 11.9043 3.37546 11.9043 3.04541V0.802246ZM7.5918 7.05908C7.59186 7.87281 7.91483 8.6536 8.49023 9.229C9.06568 9.80438 9.84639 10.1274 10.6602 10.1274C11.4231 10.1274 12.1568 9.84321 12.7197 9.3335L12.8301 9.229C13.4055 8.6536 13.7284 7.87281 13.7285 7.05908V6.90869H7.5918V7.05908Z" fill="#A855F7" stroke="white" stroke-width="0.3"/>
</svg>
